# xmcd
#
# Track frame offsets:
#	150
#	9636
#	18698
#	36723
#	52852
#	75527
#	91656
#	114066
#	131480
#	151205
#	167995
#	200690
#
# Disc length: 3008 seconds
#
# Revision: 1
# Processed by: cddbd v1.5.2PL0 Copyright (c) Steve Scherf et al.
# Submitted via: audiograbber 1.83.01
#
DISCID=900bbe0c
DTITLE=the blues band - bye bye blues - xxx cd1
DYEAR=2012
DGENRE=Blues
TTITLE0=come on in
TTITLE1=hey, hey little girl
TTITLE2=death letter
TTITLE3=grits ain't groceries
TTITLE4=flat foot sam
TTITLE5=don't you lie to me
TTITLE6=can't hold on
TTITLE7=it might as well be me
TTITLE8=nadine
TTITLE9=big boss man
TTITLE10=maggie's farm
TTITLE11=treat her right
EXTD=
EXTT0=
EXTT1=
EXTT2=
EXTT3=
EXTT4=
EXTT5=
EXTT6=
EXTT7=
EXTT8=
EXTT9=
EXTT10=
EXTT11=
PLAYORDER=
